<?xml version="1.0" standalone="no"?>
<!DOCTYPE svg PUBLIC "-//W3C//DTD SVG 20010904//EN"
 "http://www.w3.org/TR/2001/REC-SVG-20010904/DTD/svg10.dtd">
<svg fill="#0028AF" version="1.0" xmlns="http://www.w3.org/2000/svg"
 width="3355.802549pt" height="998.662719pt" viewBox="0 0 3355.802549 998.662719"
 preserveAspectRatio="xMidYMid meet">
<metadata>
Created by potrace 1.16, written by Peter Selinger 2001-2019
</metadata>
<g transform="translate(-2.541604,999.756270) scale(0.100000,-0.100000)"
fill="#0028AF" stroke="none">
<path d="M4055 9989 c-324 -28 -737 -132 -1055 -266 -491 -208 -879 -482
-1361 -963 -124 -124 -275 -283 -335 -354 -717 -844 -1129 -1730 -1261 -2706
-14 -108 -18 -200 -18 -465 1 -299 3 -349 27 -530 90 -678 275 -1267 561
-1790 134 -244 342 -544 519 -748 112 -128 373 -387 492 -486 280 -234 539
-406 926 -614 258 -138 661 -296 1020 -398 152 -44 487 -119 530 -119 8 0 -7
15 -34 33 -135 91 -313 219 -411 295 -1051 818 -1721 1876 -1964 3097 -118
592 -129 1186 -29 1655 161 763 539 1432 1134 2010 367 357 738 585 1087 668
97 23 133 26 267 26 135 -1 168 -4 255 -27 178 -48 323 -134 524 -312 49 -44
260 -253 468 -465 208 -212 664 -672 1013 -1022 499 -502 637 -635 647 -625 6
6 150 206 319 442 169 237 368 514 442 617 73 103 132 192 130 197 -3 9 -972
993 -1728 1755 -562 566 -675 672 -835 779 -371 248 -833 358 -1330 316z"/>
<path d="M13750 6633 c0 -2134 3 -3010 11 -3038 17 -62 102 -140 168 -154 69
-15 682 -15 751 0 64 14 127 61 157 118 l23 44 0 1914 c0 1085 4 1913 9 1913
5 0 31 -37 58 -82 27 -46 233 -387 458 -758 225 -371 472 -781 550 -910 552
-912 516 -857 600 -915 83 -58 155 -75 310 -75 151 0 228 17 308 71 71 47 104
91 253 343 75 127 156 263 179 301 23 39 95 160 160 270 119 202 407 688 605
1020 58 99 185 313 281 475 l174 295 5 -1930 5 -1930 22 -40 c25 -47 64 -85
113 -111 32 -18 64 -19 430 -19 388 0 396 0 436 22 47 25 91 73 111 120 11 27
13 540 13 3043 l0 3011 -452 -4 c-509 -4 -500 -3 -663 -82 -49 -24 -117 -66
-150 -93 -113 -93 -152 -155 -404 -634 -302 -575 -337 -642 -371 -703 -30 -54
-883 -1673 -984 -1867 -34 -65 -64 -118 -68 -118 -3 0 -39 62 -79 138 -39 75
-91 173 -114 217 -126 239 -262 496 -530 1005 -357 678 -376 713 -430 815 -23
44 -68 130 -100 190 -32 61 -74 142 -95 180 -21 39 -93 176 -160 305 -68 129
-139 259 -158 289 -80 128 -226 248 -365 302 -144 55 -187 59 -648 59 l-419 0
0 -2997z"/>
<path d="M22577 7860 c-627 -66 -1187 -406 -1538 -935 -138 -207 -258 -491
-313 -737 -42 -192 -56 -323 -56 -541 0 -392 69 -700 230 -1032 161 -331 425
-634 725 -830 367 -240 795 -358 1245 -342 190 7 307 23 482 67 830 209 1452
929 1575 1825 22 163 22 488 -1 654 -47 348 -155 641 -351 951 -98 156 -311
382 -475 507 -264 199 -565 330 -892 389 -161 28 -471 40 -631 24z m422 -875
c501 -81 885 -488 998 -1054 25 -125 25 -431 -1 -566 -113 -606 -556 -1023
-1117 -1052 -475 -24 -884 215 -1122 657 -56 103 -119 290 -143 420 -25 132
-25 410 -1 540 67 366 252 673 520 864 127 90 331 173 483 195 97 14 283 12
383 -4z"/>
<path d="M31217 7860 c-484 -51 -939 -268 -1267 -604 -137 -140 -180 -193
-271 -330 -271 -408 -400 -906 -368 -1430 72 -1214 1017 -2096 2199 -2053 681
24 1272 337 1657 877 135 190 213 344 293 577 89 259 123 473 123 763 1 385
-69 697 -228 1025 -255 525 -672 894 -1216 1076 -212 71 -388 99 -639 104
-107 2 -235 0 -283 -5z m422 -875 c237 -39 450 -151 628 -331 172 -174 284
-378 347 -631 164 -661 -121 -1347 -667 -1603 -446 -209 -978 -115 -1321 234
-189 192 -305 416 -368 709 -31 147 -32 456 0 603 60 277 170 495 343 678 171
181 418 311 654 345 98 14 283 12 384 -4z"/>
<path d="M24965 7753 c7 -21 29 -76 48 -123 33 -81 147 -363 474 -1175 80
-198 234 -580 343 -850 264 -653 401 -993 587 -1455 85 -212 170 -418 188
-458 57 -122 166 -211 296 -241 72 -17 395 -14 464 4 118 31 227 121 279 230
13 28 65 151 114 275 50 124 140 347 200 495 60 149 178 441 262 650 84 209
201 499 260 645 549 1359 820 2031 820 2036 0 2 -170 4 -378 4 -307 0 -389 -3
-437 -15 -135 -36 -247 -126 -305 -246 -16 -35 -86 -215 -154 -399 -132 -358
-284 -765 -531 -1425 -84 -225 -183 -491 -220 -590 -102 -276 -126 -339 -134
-347 -7 -8 -4 -18 -281 727 -111 297 -251 673 -312 835 -60 162 -179 482 -264
710 -85 228 -162 433 -171 455 -60 144 -171 241 -318 280 -48 12 -131 15 -452
15 l-392 0 14 -37z"/>
<path d="M11105 7093 c-188 -326 -477 -787 -749 -1193 -171 -255 -177 -266
-172 -305 13 -93 18 -576 7 -715 -63 -817 -362 -1564 -879 -2193 -285 -346
-594 -595 -1005 -805 -378 -194 -769 -314 -1146 -352 -149 -15 -406 -12 -554
5 -299 35 -581 118 -884 260 -421 198 -902 580 -1089 864 -155 238 -289 591
-325 856 -18 140 -7 359 25 473 31 112 80 220 140 310 49 74 123 162 136 162
10 0 49 -62 260 -420 255 -432 320 -523 489 -689 209 -203 539 -396 761 -446
123 -27 230 -36 311 -25 177 23 329 50 392 70 177 55 439 175 427 196 -3 5
-53 49 -111 99 -59 49 -142 122 -186 160 -43 39 -171 147 -283 240 -225 188
-300 251 -345 294 -16 16 -64 57 -105 91 -41 35 -75 66 -75 71 0 4 38 28 85
52 155 81 349 227 475 358 l70 72 -92 -83 c-162 -147 -322 -238 -474 -271 -74
-16 -212 -6 -289 20 -150 52 -292 176 -440 386 -185 263 -738 1015 -803 1092
-114 136 -224 216 -351 255 -56 17 -86 20 -165 16 -163 -8 -284 -73 -448 -239
-472 -482 -822 -1155 -918 -1769 -26 -163 -31 -513 -11 -690 59 -514 266
-1014 611 -1475 210 -280 511 -588 804 -821 674 -537 1402 -857 2195 -965 220
-30 690 -38 916 -14 550 56 1027 193 1511 436 688 344 1291 836 1729 1410 424
556 760 1268 920 1949 88 371 120 643 127 1075 6 354 -4 555 -43 865 -56 448
-208 1058 -338 1360 -21 46 -39 86 -40 88 -2 2 -34 -50 -71 -115z"/>
<path d="M14943 2300 c-49 -23 -69 -39 -93 -76 -50 -80 -50 -183 1 -255 26
-37 123 -83 230 -109 111 -28 161 -56 173 -97 21 -76 -33 -123 -143 -123 -80
0 -134 17 -203 66 l-46 33 -42 -51 -43 -50 29 -24 c107 -88 292 -127 423 -88
100 29 171 123 171 224 0 112 -56 171 -210 219 -163 51 -191 62 -211 82 -44
44 -30 111 31 142 53 28 137 18 224 -27 38 -20 70 -35 71 -33 30 39 65 92 65
98 0 15 -83 62 -143 81 -37 11 -89 18 -140 18 -70 0 -91 -4 -144 -30z"/>
<path d="M15910 1920 l0 -400 70 0 70 0 0 129 0 129 133 4 c116 3 139 7 188
30 113 52 168 147 155 270 -7 73 -34 126 -86 170 -67 58 -116 68 -336 68
l-194 0 0 -400z m395 254 c55 -27 79 -64 79 -123 0 -60 -21 -94 -74 -121 -32
-16 -59 -20 -150 -20 l-110 0 0 138 c0 76 3 142 8 146 4 5 52 6 108 4 72 -3
111 -10 139 -24z"/>
<path d="M17020 1920 l0 -400 300 0 300 0 0 65 0 65 -230 0 -230 0 0 105 0
105 200 0 201 0 -3 63 -3 62 -197 3 -198 2 0 105 0 105 225 0 225 0 0 60 0 60
-295 0 -295 0 0 -400z"/>
<path d="M18130 1920 l0 -400 70 0 70 0 2 280 3 279 215 -279 215 -279 63 0
62 -1 0 400 0 400 -70 0 -70 0 0 -266 c0 -198 -3 -265 -12 -262 -6 2 -102 121
-213 264 l-201 259 -67 3 -67 3 0 -401z"/>
<path d="M19380 1921 l0 -401 170 0 c93 0 193 5 222 11 86 18 158 58 219 120
79 80 103 142 103 274 1 92 -2 105 -30 165 -42 88 -99 144 -192 188 l-77 37
-207 3 -208 4 0 -401z m403 254 c63 -23 129 -88 150 -150 35 -102 14 -225 -50
-289 -67 -68 -102 -80 -240 -84 l-123 -4 0 277 0 278 108 -6 c60 -3 128 -13
155 -22z"/>
<path d="M23377 2313 c-3 -5 -53 -118 -112 -253 -59 -135 -136 -311 -171 -391
-35 -80 -64 -149 -64 -153 0 -4 32 -6 71 -4 l71 3 37 90 38 90 193 0 194 0 37
-90 38 -90 75 -3 75 -3 -49 113 c-47 111 -143 333 -242 558 -28 63 -55 121
-61 128 -10 13 -123 17 -130 5z m135 -330 l64 -148 -129 -3 c-71 -1 -132 0
-135 2 -6 7 119 296 128 296 4 0 36 -66 72 -147z"/>
<path d="M21980 1910 l0 -400 300 0 300 0 0 65 0 65 -230 0 -230 0 0 105 0
105 200 0 200 0 0 65 0 65 -200 0 -201 0 3 103 3 102 228 3 227 2 0 60 0 60
-300 0 -300 0 0 -400z"/>
<path d="M24340 1911 l0 -401 70 0 70 0 0 140 0 140 90 0 c88 0 91 -1 108 -28
9 -16 52 -79 96 -140 l79 -112 84 0 84 0 -51 73 c-28 39 -75 107 -106 149
l-55 77 48 25 c92 47 136 118 136 222 1 80 -37 161 -91 196 -80 51 -85 52
-329 56 l-233 4 0 -401z m434 255 c18 -7 42 -26 54 -41 30 -38 30 -112 1 -149
-39 -49 -73 -60 -216 -64 l-133 -4 0 136 0 136 130 0 c88 0 141 -4 164 -14z"/>
<path d="M25510 1910 l0 -400 70 0 70 0 0 276 c0 158 4 274 9 272 9 -3 103
-122 330 -415 l102 -133 59 0 60 0 0 400 0 400 -70 0 -70 0 -2 -271 -3 -272
-57 74 c-32 41 -112 144 -179 229 -66 85 -135 174 -152 197 -32 42 -32 42 -99
43 l-68 0 0 -400z"/>
<path d="M20618 1704 c-65 -35 -73 -121 -17 -168 45 -38 92 -35 135 8 51 51
43 119 -18 156 -39 24 -63 25 -100 4z"/>
<path d="M26728 1704 c-65 -35 -73 -121 -17 -168 80 -68 197 18 160 117 -12
30 -65 67 -96 67 -11 -1 -32 -7 -47 -16z"/>
</g>
</svg>
